<?xml version="1.0" encoding="UTF-8" standalone="no"?>
<!-- Generator: Adobe Illustrator 13.0.0, SVG Export Plug-In . SVG Version: 6.00 Build 14948)  -->

<svg
   xmlns:dc="http://purl.org/dc/elements/1.1/"
   xmlns:cc="http://creativecommons.org/ns#"
   xmlns:rdf="http://www.w3.org/1999/02/22-rdf-syntax-ns#"
   xmlns:svg="http://www.w3.org/2000/svg"
   xmlns="http://www.w3.org/2000/svg"
   xmlns:xlink="http://www.w3.org/1999/xlink"
   xmlns:sodipodi="http://sodipodi.sourceforge.net/DTD/sodipodi-0.dtd"
   xmlns:inkscape="http://www.inkscape.org/namespaces/inkscape"
   version="1.1"
   id="Layer_1"
   x="0px"
   y="0px"
   width="512pt"
   height="512pt"
   viewBox="0 0 640 640"
   enable-background="new 0 0 500 500"
   xml:space="preserve"
   inkscape:version="0.91 r13725"
   sodipodi:docname="icon.svg"><metadata
     id="metadata23"><rdf:RDF><cc:Work
         rdf:about=""><dc:format>image/svg+xml</dc:format><dc:type
           rdf:resource="http://purl.org/dc/dcmitype/StillImage" /><dc:title></dc:title></cc:Work></rdf:RDF></metadata><defs
     id="defs21"><linearGradient
       inkscape:collect="always"
       id="linearGradient4375"><stop
         style="stop-color:#37474f;stop-opacity:1"
         offset="0"
         id="stop4377" /><stop
         style="stop-color:#263238;stop-opacity:1"
         offset="1"
         id="stop4379" /></linearGradient><linearGradient
       inkscape:collect="always"
       id="linearGradient4359"><stop
         style="stop-color:#80deea;stop-opacity:1;"
         offset="0"
         id="stop4361" /><stop
         style="stop-color:#00acc1;stop-opacity:1"
         offset="1"
         id="stop4363" /></linearGradient><filter
       style="color-interpolation-filters:sRGB"
       inkscape:label="Drop Shadow"
       id="filter4454"><feFlood
         flood-opacity="0.498039"
         flood-color="rgb(0,0,0)"
         result="flood"
         id="feFlood4456" /><feComposite
         in="flood"
         in2="SourceGraphic"
         operator="in"
         result="composite1"
         id="feComposite4458" /><feGaussianBlur
         in="composite1"
         stdDeviation="2"
         result="blur"
         id="feGaussianBlur4460" /><feOffset
         dx="4.57967e-15"
         dy="3"
         result="offset"
         id="feOffset4462" /><feComposite
         in="SourceGraphic"
         in2="offset"
         operator="over"
         result="composite2"
         id="feComposite4464" /></filter><filter
       style="color-interpolation-filters:sRGB"
       inkscape:label="Drop Shadow"
       id="filter4466"><feFlood
         flood-opacity="0.498039"
         flood-color="rgb(0,0,0)"
         result="flood"
         id="feFlood4468" /><feComposite
         in="flood"
         in2="SourceGraphic"
         operator="in"
         result="composite1"
         id="feComposite4470" /><feGaussianBlur
         in="composite1"
         stdDeviation="2"
         result="blur"
         id="feGaussianBlur4472" /><feOffset
         dx="4.57967e-15"
         dy="3"
         result="offset"
         id="feOffset4474" /><feComposite
         in="SourceGraphic"
         in2="offset"
         operator="over"
         result="composite2"
         id="feComposite4476" /></filter><filter
       style="color-interpolation-filters:sRGB"
       inkscape:label="Drop Shadow"
       id="filter4478"><feFlood
         flood-opacity="0.498039"
         flood-color="rgb(0,0,0)"
         result="flood"
         id="feFlood4480" /><feComposite
         in="flood"
         in2="SourceGraphic"
         operator="in"
         result="composite1"
         id="feComposite4482" /><feGaussianBlur
         in="composite1"
         stdDeviation="2"
         result="blur"
         id="feGaussianBlur4484" /><feOffset
         dx="4.57967e-15"
         dy="3"
         result="offset"
         id="feOffset4486" /><feComposite
         in="SourceGraphic"
         in2="offset"
         operator="over"
         result="composite2"
         id="feComposite4488" /></filter><filter
       style="color-interpolation-filters:sRGB"
       inkscape:label="Drop Shadow"
       id="filter4490"><feFlood
         flood-opacity="0.498039"
         flood-color="rgb(0,0,0)"
         result="flood"
         id="feFlood4492" /><feComposite
         in="flood"
         in2="SourceGraphic"
         operator="in"
         result="composite1"
         id="feComposite4494" /><feGaussianBlur
         in="composite1"
         stdDeviation="2"
         result="blur"
         id="feGaussianBlur4496" /><feOffset
         dx="4.57967e-15"
         dy="3"
         result="offset"
         id="feOffset4498" /><feComposite
         in="SourceGraphic"
         in2="offset"
         operator="over"
         result="composite2"
         id="feComposite4500" /></filter><filter
       style="color-interpolation-filters:sRGB"
       inkscape:label="Drop Shadow"
       id="filter4610"><feFlood
         flood-opacity="0.498039"
         flood-color="rgb(0,0,0)"
         result="flood"
         id="feFlood4612" /><feComposite
         in="flood"
         in2="SourceGraphic"
         operator="out"
         result="composite1"
         id="feComposite4614" /><feGaussianBlur
         in="composite1"
         stdDeviation="2"
         result="blur"
         id="feGaussianBlur4616" /><feOffset
         dx="4.57967e-15"
         dy="1"
         result="offset"
         id="feOffset4618" /><feComposite
         in="offset"
         in2="SourceGraphic"
         operator="atop"
         result="composite2"
         id="feComposite4620" /></filter><filter
       style="color-interpolation-filters:sRGB"
       inkscape:label="Drop Shadow"
       id="filter4622"><feFlood
         flood-opacity="0.498039"
         flood-color="rgb(0,0,0)"
         result="flood"
         id="feFlood4624" /><feComposite
         in="flood"
         in2="SourceGraphic"
         operator="out"
         result="composite1"
         id="feComposite4626" /><feGaussianBlur
         in="composite1"
         stdDeviation="2"
         result="blur"
         id="feGaussianBlur4628" /><feOffset
         dx="4.57967e-15"
         dy="1"
         result="offset"
         id="feOffset4630" /><feComposite
         in="offset"
         in2="SourceGraphic"
         operator="atop"
         result="composite2"
         id="feComposite4632" /></filter><filter
       style="color-interpolation-filters:sRGB"
       inkscape:label="Drop Shadow"
       id="filter4634"><feFlood
         flood-opacity="0.498039"
         flood-color="rgb(0,0,0)"
         result="flood"
         id="feFlood4636" /><feComposite
         in="flood"
         in2="SourceGraphic"
         operator="out"
         result="composite1"
         id="feComposite4638" /><feGaussianBlur
         in="composite1"
         stdDeviation="2"
         result="blur"
         id="feGaussianBlur4640" /><feOffset
         dx="4.57967e-15"
         dy="1"
         result="offset"
         id="feOffset4642" /><feComposite
         in="offset"
         in2="SourceGraphic"
         operator="atop"
         result="composite2"
         id="feComposite4644" /></filter><filter
       style="color-interpolation-filters:sRGB"
       inkscape:label="Drop Shadow"
       id="filter4646"><feFlood
         flood-opacity="0.498039"
         flood-color="rgb(0,0,0)"
         result="flood"
         id="feFlood4648" /><feComposite
         in="flood"
         in2="SourceGraphic"
         operator="out"
         result="composite1"
         id="feComposite4650" /><feGaussianBlur
         in="composite1"
         stdDeviation="2"
         result="blur"
         id="feGaussianBlur4652" /><feOffset
         dx="4.57967e-15"
         dy="1"
         result="offset"
         id="feOffset4654" /><feComposite
         in="offset"
         in2="SourceGraphic"
         operator="atop"
         result="composite2"
         id="feComposite4656" /></filter><filter
       style="color-interpolation-filters:sRGB"
       inkscape:label="Drop Shadow"
       id="filter4658"><feFlood
         flood-opacity="0.498039"
         flood-color="rgb(0,0,0)"
         result="flood"
         id="feFlood4660" /><feComposite
         in="flood"
         in2="SourceGraphic"
         operator="in"
         result="composite1"
         id="feComposite4662" /><feGaussianBlur
         in="composite1"
         stdDeviation="2"
         result="blur"
         id="feGaussianBlur4664" /><feOffset
         dx="4.57967e-15"
         dy="1"
         result="offset"
         id="feOffset4666" /><feComposite
         in="SourceGraphic"
         in2="offset"
         operator="over"
         result="composite2"
         id="feComposite4668" /></filter><filter
       style="color-interpolation-filters:sRGB"
       inkscape:label="Drop Shadow"
       id="filter4658-4"><feFlood
         flood-opacity="0.498039"
         flood-color="rgb(0,0,0)"
         result="flood"
         id="feFlood4660-5" /><feComposite
         in="flood"
         in2="SourceGraphic"
         operator="in"
         result="composite1"
         id="feComposite4662-1" /><feGaussianBlur
         in="composite1"
         stdDeviation="2"
         result="blur"
         id="feGaussianBlur4664-2" /><feOffset
         dx="4.57967e-15"
         dy="1"
         result="offset"
         id="feOffset4666-3" /><feComposite
         in="SourceGraphic"
         in2="offset"
         operator="over"
         result="composite2"
         id="feComposite4668-4" /></filter><filter
       style="color-interpolation-filters:sRGB"
       inkscape:label="Drop Shadow"
       id="filter4658-4-3"><feFlood
         flood-opacity="0.498039"
         flood-color="rgb(0,0,0)"
         result="flood"
         id="feFlood4660-5-5" /><feComposite
         in="flood"
         in2="SourceGraphic"
         operator="in"
         result="composite1"
         id="feComposite4662-1-7" /><feGaussianBlur
         in="composite1"
         stdDeviation="2"
         result="blur"
         id="feGaussianBlur4664-2-3" /><feOffset
         dx="4.57967e-15"
         dy="1"
         result="offset"
         id="feOffset4666-3-8" /><feComposite
         in="SourceGraphic"
         in2="offset"
         operator="over"
         result="composite2"
         id="feComposite4668-4-6" /></filter><filter
       style="color-interpolation-filters:sRGB"
       inkscape:label="Drop Shadow"
       id="filter4468"><feFlood
         flood-opacity="0.498039"
         flood-color="rgb(0,0,0)"
         result="flood"
         id="feFlood4470" /><feComposite
         in="flood"
         in2="SourceGraphic"
         operator="in"
         result="composite1"
         id="feComposite4472" /><feGaussianBlur
         in="composite1"
         stdDeviation="2"
         result="blur"
         id="feGaussianBlur4474" /><feOffset
         dx="4.57967e-15"
         dy="2"
         result="offset"
         id="feOffset4476" /><feComposite
         in="SourceGraphic"
         in2="offset"
         operator="over"
         result="composite2"
         id="feComposite4478" /></filter><filter
       style="color-interpolation-filters:sRGB"
       inkscape:label="Drop Shadow"
       id="filter4480"><feFlood
         flood-opacity="0.498039"
         flood-color="rgb(0,0,0)"
         result="flood"
         id="feFlood4482" /><feComposite
         in="flood"
         in2="SourceGraphic"
         operator="in"
         result="composite1"
         id="feComposite4484" /><feGaussianBlur
         in="composite1"
         stdDeviation="2"
         result="blur"
         id="feGaussianBlur4486" /><feOffset
         dx="4.57967e-15"
         dy="2"
         result="offset"
         id="feOffset4488" /><feComposite
         in="SourceGraphic"
         in2="offset"
         operator="over"
         result="composite2"
         id="feComposite4490" /></filter><filter
       style="color-interpolation-filters:sRGB"
       inkscape:label="Drop Shadow"
       id="filter4492"><feFlood
         flood-opacity="0.498039"
         flood-color="rgb(0,0,0)"
         result="flood"
         id="feFlood4494" /><feComposite
         in="flood"
         in2="SourceGraphic"
         operator="in"
         result="composite1"
         id="feComposite4496" /><feGaussianBlur
         in="composite1"
         stdDeviation="2"
         result="blur"
         id="feGaussianBlur4498" /><feOffset
         dx="4.57967e-15"
         dy="2"
         result="offset"
         id="feOffset4500" /><feComposite
         in="SourceGraphic"
         in2="offset"
         operator="over"
         result="composite2"
         id="feComposite4502" /></filter><filter
       style="color-interpolation-filters:sRGB"
       inkscape:label="Drop Shadow"
       id="filter4242"><feFlood
         flood-opacity="0.498039"
         flood-color="rgb(0,0,0)"
         result="flood"
         id="feFlood4244" /><feComposite
         in="flood"
         in2="SourceGraphic"
         operator="in"
         result="composite1"
         id="feComposite4246" /><feGaussianBlur
         in="composite1"
         stdDeviation="2"
         result="blur"
         id="feGaussianBlur4248" /><feOffset
         dx="4.57967e-15"
         dy="2"
         result="offset"
         id="feOffset4250" /><feComposite
         in="SourceGraphic"
         in2="offset"
         operator="over"
         result="composite2"
         id="feComposite4252" /></filter><filter
       style="color-interpolation-filters:sRGB"
       inkscape:label="Drop Shadow"
       id="filter4481"><feFlood
         flood-opacity="0.498039"
         flood-color="rgb(0,0,0)"
         result="flood"
         id="feFlood4483" /><feComposite
         in="flood"
         in2="SourceGraphic"
         operator="in"
         result="composite1"
         id="feComposite4485" /><feGaussianBlur
         in="composite1"
         stdDeviation="1"
         result="blur"
         id="feGaussianBlur4487" /><feOffset
         dx="4.57967e-15"
         dy="1"
         result="offset"
         id="feOffset4489" /><feComposite
         in="SourceGraphic"
         in2="offset"
         operator="over"
         result="composite2"
         id="feComposite4491" /></filter><filter
       style="color-interpolation-filters:sRGB"
       inkscape:label="Drop Shadow"
       id="filter4493"><feFlood
         flood-opacity="0.498039"
         flood-color="rgb(0,0,0)"
         result="flood"
         id="feFlood4495" /><feComposite
         in="flood"
         in2="SourceGraphic"
         operator="in"
         result="composite1"
         id="feComposite4497" /><feGaussianBlur
         in="composite1"
         stdDeviation="2"
         result="blur"
         id="feGaussianBlur4499" /><feOffset
         dx="4.57967e-15"
         dy="2"
         result="offset"
         id="feOffset4501" /><feComposite
         in="SourceGraphic"
         in2="offset"
         operator="over"
         result="composite2"
         id="feComposite4503" /></filter><filter
       style="color-interpolation-filters:sRGB"
       inkscape:label="Drop Shadow"
       id="filter4505"><feFlood
         flood-opacity="0.498039"
         flood-color="rgb(0,0,0)"
         result="flood"
         id="feFlood4507" /><feComposite
         in="flood"
         in2="SourceGraphic"
         operator="in"
         result="composite1"
         id="feComposite4509" /><feGaussianBlur
         in="composite1"
         stdDeviation="2"
         result="blur"
         id="feGaussianBlur4511" /><feOffset
         dx="4.57967e-15"
         dy="2"
         result="offset"
         id="feOffset4513" /><feComposite
         in="SourceGraphic"
         in2="offset"
         operator="over"
         result="composite2"
         id="feComposite4515" /></filter><filter
       style="color-interpolation-filters:sRGB"
       inkscape:label="Drop Shadow"
       id="filter4517"><feFlood
         flood-opacity="0.498039"
         flood-color="rgb(0,0,0)"
         result="flood"
         id="feFlood4519" /><feComposite
         in="flood"
         in2="SourceGraphic"
         operator="in"
         result="composite1"
         id="feComposite4521" /><feGaussianBlur
         in="composite1"
         stdDeviation="2"
         result="blur"
         id="feGaussianBlur4523" /><feOffset
         dx="4.57967e-15"
         dy="2"
         result="offset"
         id="feOffset4525" /><feComposite
         in="SourceGraphic"
         in2="offset"
         operator="over"
         result="composite2"
         id="feComposite4527" /></filter><filter
       style="color-interpolation-filters:sRGB"
       inkscape:label="Drop Shadow"
       id="filter4545"><feFlood
         flood-opacity="0.498039"
         flood-color="rgb(0,0,0)"
         result="flood"
         id="feFlood4547" /><feComposite
         in="flood"
         in2="SourceGraphic"
         operator="out"
         result="composite1"
         id="feComposite4549" /><feGaussianBlur
         in="composite1"
         stdDeviation="1"
         result="blur"
         id="feGaussianBlur4551" /><feOffset
         dx="4.57967e-15"
         dy="1"
         result="offset"
         id="feOffset4553" /><feComposite
         in="offset"
         in2="SourceGraphic"
         operator="atop"
         result="composite2"
         id="feComposite4555" /></filter><linearGradient
       inkscape:collect="always"
       xlink:href="#linearGradient4359"
       id="linearGradient4365"
       x1="270"
       y1="180"
       x2="160"
       y2="340"
       gradientUnits="userSpaceOnUse" /><linearGradient
       inkscape:collect="always"
       xlink:href="#linearGradient4375"
       id="linearGradient4381"
       x1="553.3717"
       y1="38.467873"
       x2="616.05121"
       y2="187.03194"
       gradientUnits="userSpaceOnUse" /><filter
       style="color-interpolation-filters:sRGB;"
       inkscape:label="Drop Shadow"
       id="filter4497"><feFlood
         flood-opacity="0.498039"
         flood-color="rgb(0,0,0)"
         result="flood"
         id="feFlood4499" /><feComposite
         in="flood"
         in2="SourceGraphic"
         operator="in"
         result="composite1"
         id="feComposite4501" /><feGaussianBlur
         in="composite1"
         stdDeviation="4"
         result="blur"
         id="feGaussianBlur4503" /><feOffset
         dx="4.57967e-15"
         dy="4"
         result="offset"
         id="feOffset4505" /><feComposite
         in="SourceGraphic"
         in2="offset"
         operator="over"
         result="composite2"
         id="feComposite4507" /></filter></defs><sodipodi:namedview
     pagecolor="#ffffff"
     bordercolor="#666666"
     borderopacity="1"
     objecttolerance="10"
     gridtolerance="10"
     guidetolerance="10"
     inkscape:pageopacity="0"
     inkscape:pageshadow="2"
     inkscape:window-width="1875"
     inkscape:window-height="1056"
     id="namedview19"
     showgrid="true"
     inkscape:zoom="0.62986113"
     inkscape:cx="1.8799291"
     inkscape:cy="138.32005"
     inkscape:window-x="45"
     inkscape:window-y="24"
     inkscape:window-maximized="1"
     inkscape:current-layer="Layer_1"
     fit-margin-top="12"
     fit-margin-left="16"
     fit-margin-right="16"
     fit-margin-bottom="24"
     units="pt"><inkscape:grid
       type="xygrid"
       id="grid4261" /></sodipodi:namedview><g
     id="max_width__x2F__height"
     display="none"
     style="display:none"
     transform="translate(-70.246744,253.96079)"><path
       display="inline"
       d="m 499.001,1 0,498 L 1,499 1,1 499.001,1 m 1,-1 L 0,0 l 0,500 500.001,0 0,-500 0,0 z"
       id="path4"
       inkscape:connector-curvature="0"
       style="display:inline" /></g><g
     id="g4465"
     transform="translate(-3.462298,2.4723052e-5)"
     style="filter:url(#filter4497)"><rect
       transform="matrix(0.8660254,0.5,-0.5,0.8660254,0,0)"
       ry="17.00317"
       rx="17.00317"
       y="62.348675"
       x="525.96344"
       height="106.26981"
       width="131.03877"
       id="rect4265"
       style="opacity:1;fill:url(#linearGradient4381);fill-opacity:1;stroke:none;stroke-width:3.5;stroke-miterlimit:4;stroke-dasharray:none;stroke-opacity:1" /><path
       sodipodi:nodetypes="cccc"
       inkscape:connector-curvature="0"
       id="path4295"
       d="M 310.39273,445.76872 C -65.253209,228.88944 34.717723,50.902028 34.717723,50.902028 L 412.45627,268.98948 Z"
       style="fill:url(#linearGradient4365);fill-opacity:1;fill-rule:evenodd;stroke:none;stroke-width:1px;stroke-linecap:butt;stroke-linejoin:miter;stroke-opacity:1" /><g
       id="g4430"><circle
         style="opacity:1;fill:#fdd835;fill-opacity:1;stroke:none;stroke-width:3.5;stroke-miterlimit:4;stroke-dasharray:none;stroke-opacity:1"
         id="path4263"
         cx="699.76208"
         cy="115.48358"
         r="76"
         transform="matrix(0.8660254,0.5,-0.5,0.8660254,0,0)" /><path
         inkscape:connector-curvature="0"
         style="color:#000000;font-style:normal;font-variant:normal;font-weight:normal;font-stretch:normal;font-size:medium;line-height:normal;font-family:sans-serif;text-indent:0;text-align:start;text-decoration:none;text-decoration-line:none;text-decoration-style:solid;text-decoration-color:#000000;letter-spacing:normal;word-spacing:normal;text-transform:none;direction:ltr;block-progression:tb;writing-mode:lr-tb;baseline-shift:baseline;text-anchor:start;white-space:normal;clip-rule:nonzero;display:inline;overflow:visible;visibility:visible;opacity:1;isolation:auto;mix-blend-mode:normal;color-interpolation:sRGB;color-interpolation-filters:linearRGB;solid-color:#000000;solid-opacity:1;fill:#fdd835;fill-opacity:1;fill-rule:evenodd;stroke:none;stroke-width:47.17409897;stroke-linecap:round;stroke-linejoin:round;stroke-miterlimit:4;stroke-dasharray:none;stroke-dashoffset:0;stroke-opacity:1;color-rendering:auto;image-rendering:auto;shape-rendering:auto;text-rendering:auto;enable-background:accumulate"
         d="m 428.97466,248.50391 a 23.589408,23.589408 0 0 0 -20.79492,12.08398 L 294.58403,457.3418 a 23.589408,23.589408 0 0 0 -0.70312,22.27539 c 0,0 26.12124,55.97113 73.75,88.77539 23.81438,16.40213 56.09466,27.06665 89.79883,16.45312 27.87769,-8.77876 54.1926,-30.22696 79.47851,-66.85547 a 69.075378,69.075378 0 0 1 -0.0391,-0.008 69.075378,69.075378 0 0 1 -6.60156,-1.43554 69.075378,69.075378 0 0 1 -0.9668,-0.30274 69.075378,69.075378 0 0 1 -5.46875,-1.77539 69.075378,69.075378 0 0 1 -2.0332,-0.86523 69.075378,69.075378 0 0 1 -4.29297,-1.88477 69.075378,69.075378 0 0 1 -3.77344,-2.00586 69.075378,69.075378 0 0 1 -18.02539,-15.13281 69.075378,69.075378 0 0 1 -0.0234,-0.0274 c -20.25839,28.22556 -38.38244,40.87521 -52.42382,45.29688 -17.66957,5.56419 -32.58623,0.90759 -48.8711,-10.30859 -23.21499,-15.9893 -42.7333,-44.94581 -52.14258,-60.40625 L 449.03325,284.17578 a 23.589408,23.589408 0 0 0 -20.05859,-35.67187 z m 120.92578,132.33203 a 69.075378,69.075378 0 0 0 -2.46094,0.0664 69.075378,69.075378 0 0 1 3.48243,0.01 69.075378,69.075378 0 0 0 -1.02149,-0.0762 z m -5.89648,0.15625 a 69.075378,69.075378 0 0 0 -3.42774,0.33398 69.075378,69.075378 0 0 1 3.42774,-0.33398 z m 10.30078,0.16797 a 69.075378,69.075378 0 0 1 3.49609,0.36132 69.075378,69.075378 0 0 0 -3.49609,-0.36132 z m -17.14844,0.59961 a 69.075378,69.075378 0 0 0 -3.41406,0.68359 69.075378,69.075378 0 0 1 3.41406,-0.68359 z m 23.98242,0.34765 a 69.075378,69.075378 0 0 1 3.4336,0.70508 69.075378,69.075378 0 0 0 -3.4336,-0.70508 z m -30.73047,1.10352 a 69.075378,69.075378 0 0 0 -3.31054,1.01367 69.075378,69.075378 0 0 1 3.31054,-1.01367 z m 37.4336,0.51953 a 69.075378,69.075378 0 0 1 3.34961,1.04687 69.075378,69.075378 0 0 0 -3.34961,-1.04687 z m -44.00391,1.59765 a 69.075378,69.075378 0 0 0 -3.16016,1.32422 69.075378,69.075378 0 0 1 3.16016,-1.32422 z m 50.53516,0.69727 a 69.075378,69.075378 0 0 1 3.1875,1.35742 69.075378,69.075378 0 0 0 -3.1875,-1.35742 z m -56.88086,2.07617 a 69.075378,69.075378 0 0 0 -2.98047,1.61719 69.075378,69.075378 0 0 1 2.98047,-1.61719 z m 65.3164,1.97071 a 69.075378,69.075378 0 0 1 4.94336,3.19335 69.075378,69.075378 0 0 0 -4.94336,-3.19335 z m -71.32226,1.40625 a 69.075378,69.075378 0 0 0 -2.80469,1.90625 69.075378,69.075378 0 0 1 2.80469,-1.90625 z m 79.04883,3.8789 a 69.075378,69.075378 0 0 1 2.67187,2.13281 69.075378,69.075378 0 0 0 -2.67187,-2.13281 z m -84.70313,0.0879 a 69.075378,69.075378 0 0 0 -2.60351,2.18164 69.075378,69.075378 0 0 1 2.60351,-2.18164 z m 89.9375,4.4043 a 69.075378,69.075378 0 0 1 2.44531,2.38867 69.075378,69.075378 0 0 0 -2.44531,-2.38867 z m -95.15234,0.0977 a 69.075378,69.075378 0 0 0 -2.40039,2.45703 69.075378,69.075378 0 0 1 2.40039,-2.45703 z m 99.9082,4.89062 a 69.075378,69.075378 0 0 1 2.19922,2.62695 69.075378,69.075378 0 0 0 -2.19922,-2.62695 z M 495.877,404.94341 a 69.075378,69.075378 0 0 0 -2.15039,2.69336 69.075378,69.075378 0 0 1 2.15039,-2.69336 z m 108.89063,5.3457 a 69.075378,69.075378 0 0 1 1.91601,2.81641 69.075378,69.075378 0 0 0 -1.91601,-2.81641 z m -113.12696,0.12305 a 69.075378,69.075378 0 0 0 -3.1914,4.94336 69.075378,69.075378 0 0 1 3.1914,-4.94336 z m 116.78711,5.69336 a 69.075378,69.075378 0 0 1 1.64649,3.03515 69.075378,69.075378 0 0 0 -1.64649,-3.03515 z m -122.71093,4.59765 a 69.075378,69.075378 0 0 0 -1.14844,2.69727 69.075378,69.075378 0 0 1 1.14844,-2.69727 z m 125.77343,1.55274 a 69.075378,69.075378 0 0 1 1.34766,3.21289 69.075378,69.075378 0 0 0 -1.34766,-3.21289 z m -128.41601,4.9668 a 69.075378,69.075378 0 0 0 -0.7461,2.39453 69.075378,69.075378 0 0 1 0.7461,-2.39453 z m 130.86328,1.49804 a 69.075378,69.075378 0 0 1 1.00977,3.29297 69.075378,69.075378 0 0 0 -1.00977,-3.29297 z m -132.82422,5.24024 a 69.075378,69.075378 0 0 0 -0.42773,2.08008 69.075378,69.075378 0 0 1 0.42773,-2.08008 z m 134.61133,1.43164 a 69.075378,69.075378 0 0 1 0.67773,3.39062 69.075378,69.075378 0 0 0 -0.67773,-3.39062 z m -135.87891,5.47656 a 69.075378,69.075378 0 0 0 -0.17773,1.71875 69.075378,69.075378 0 0 1 0.17773,-1.71875 z m 136.98438,1.28125 a 69.075378,69.075378 0 0 1 0.3418,3.49805 69.075378,69.075378 0 0 0 -0.3418,-3.49805 z m -137.54297,5.70313 a 69.075378,69.075378 0 0 0 -0.004,1.38476 69.075378,69.075378 0 0 1 0.004,-1.38476 z m 137.97461,1.20703 a 69.075378,69.075378 0 0 1 -0.01,3.45898 69.075378,69.075378 0 0 0 0.01,-3.45898 z m -137.82227,5.80664 a 69.075378,69.075378 0 0 0 0.0977,1.01367 69.075378,69.075378 0 0 1 -0.0977,-1.01367 z M 616.99614,456 a 69.075378,69.075378 0 0 1 -0.35156,3.39648 A 69.075378,69.075378 0 0 0 616.99614,456 Z m -136.69726,5.81055 a 69.075378,69.075378 0 0 0 0.13867,0.69922 69.075378,69.075378 0 0 1 -0.13867,-0.69922 z m 135.75,0.98633 a 69.075378,69.075378 0 0 1 -0.69727,3.39062 69.075378,69.075378 0 0 0 0.69727,-3.39062 z M 481.85552,468.625 a 69.075378,69.075378 0 0 0 0.125,0.40625 69.075378,69.075378 0 0 1 -0.125,-0.40625 z m 132.57226,0.85547 a 69.075378,69.075378 0 0 1 -1.03711,3.32422 69.075378,69.075378 0 0 0 1.03711,-3.32422 z m -130.33203,5.77539 a 69.075378,69.075378 0 0 0 0.043,0.10352 69.075378,69.075378 0 0 1 -0.043,-0.10352 z m 128.03321,0.76367 a 69.075378,69.075378 0 0 1 -1.34375,3.15235 69.075378,69.075378 0 0 0 1.34375,-3.15235 z m -4.03711,8.41016 a 69.075378,69.075378 0 0 1 -1.98633,3.07422 69.075378,69.075378 0 0 0 1.98633,-3.07422 z m -4.04102,6.16797 a 69.075378,69.075378 0 0 1 -1.8164,2.27539 69.075378,69.075378 0 0 0 1.8164,-2.27539 z m -4.37109,5.39453 a 69.075378,69.075378 0 0 1 -1.79883,1.84179 69.075378,69.075378 0 0 0 1.79883,-1.84179 z m -4.89649,4.93554 a 69.075378,69.075378 0 0 1 -1.66797,1.39649 69.075378,69.075378 0 0 0 1.66797,-1.39649 z m -5.37109,4.41797 a 69.075378,69.075378 0 0 1 -1.51172,1.02735 69.075378,69.075378 0 0 0 1.51172,-1.02735 z m -5.76367,3.8418 a 69.075378,69.075378 0 0 1 -1.43164,0.77734 69.075378,69.075378 0 0 0 1.43164,-0.77734 z m -6.12696,3.24805 a 69.075378,69.075378 0 0 1 -1.26757,0.53125 69.075378,69.075378 0 0 0 1.26757,-0.53125 z m -6.43554,2.62109 a 69.075378,69.075378 0 0 1 -0.98242,0.30078 69.075378,69.075378 0 0 0 0.98242,-0.30078 z m -6.64844,1.95898 a 69.075378,69.075378 0 0 1 -0.81055,0.16211 69.075378,69.075378 0 0 0 0.81055,-0.16211 z m -6.80859,1.2793 a 69.075378,69.075378 0 0 1 -0.6211,0.0625 69.075378,69.075378 0 0 0 0.6211,-0.0625 z m -14.03907,0.46875 a 69.075378,69.075378 0 0 0 0.20508,0.0215 69.075378,69.075378 0 0 1 -0.20508,-0.0215 z m 6.73633,0.12305 a 69.075378,69.075378 0 0 0 0.39453,0.002 69.075378,69.075378 0 0 1 -0.39453,-0.002 z"
         id="path4281-9" /></g></g></svg>